<svg width="330" height="330" viewBox="0 0 330 330" fill="none" xmlns="http://www.w3.org/2000/svg">
<path d="M304.48 162.635C304.48 118.525 282.7 79.365 249.315 55.44C262.46 59.015 271.425 65.45 276.705 70.345C280.335 73.7 282.755 76.835 284.075 78.76C283.58 79.2 283.25 79.86 283.25 80.63C283.25 82.005 284.405 83.16 285.78 83.16C287.155 83.16 288.31 82.005 288.31 80.63C288.31 79.255 287.155 78.1 285.78 78.1C285.45 78.1 285.065 78.155 284.79 78.32C283.415 76.34 280.995 73.205 277.31 69.795C271.7 64.57 261.965 57.585 247.5 54.12V54.175C246.015 53.13 244.475 52.14 242.935 51.15C242.385 50.765 241.835 50.38 241.23 50.05V50.105C238.92 48.73 236.61 47.355 234.245 46.145C240.405 48.07 246.125 49.61 251.295 50.765C259.71 57.75 270.655 59.84 280.39 59.84C291.555 59.84 301.125 57.09 303.27 55.825L304.26 55.275L303.105 55.11C300.74 54.725 298.21 54.01 294.635 53.075C290.565 51.975 285.56 50.6 278.355 49.005C265.595 46.2 252.835 49.61 251.46 49.995C245.025 48.51 237.71 46.53 229.79 43.835V43.89C224.895 41.525 219.89 39.49 214.72 37.73C221.705 38.665 228.635 39.05 234.96 39.05C246.51 39.05 256.025 37.895 260.315 37.29C260.645 38.28 261.58 39.05 262.68 39.05C264.055 39.05 265.21 37.895 265.21 36.52C265.21 35.145 264.055 33.99 262.68 33.99C261.305 33.99 260.15 35.09 260.15 36.52C252.945 37.565 231 40.095 209.55 36.135C206.25 35.145 202.95 34.32 199.54 33.605H199.485C198.825 33.44 198.11 33.33 197.45 33.22C198.33 33.22 199.21 33.275 200.09 33.275C219.725 33.275 236.335 28.325 242.275 26.29C242.715 27.06 243.54 27.61 244.475 27.61C245.85 27.61 247.005 26.455 247.005 25.08C247.005 23.705 245.85 22.55 244.475 22.55C243.1 22.55 241.945 23.705 241.945 25.08C241.945 25.245 241.945 25.41 242 25.52C235.07 27.885 213.455 34.32 189.475 31.955C183.92 31.24 178.31 30.855 172.535 30.855C168.63 30.855 164.725 31.02 160.93 31.35C169.62 29.26 177.32 26.675 183.92 23.98H183.975C185.46 23.98 213.4 23.65 220.99 1.26501L221.375 0.165009L220.385 0.770009C220.275 0.825009 211.75 6.27001 204.16 7.75501C195.965 9.35001 186.065 15.345 183.59 23.21C174.405 26.95 163.075 30.58 149.875 32.78C146.685 33.33 143.495 33.99 140.36 34.815C154.66 27.665 164.945 15.29 168.575 10.395C168.905 10.56 169.29 10.67 169.675 10.67C171.05 10.67 172.205 9.51501 172.205 8.14001C172.205 6.76501 171.05 5.61001 169.675 5.61001C168.3 5.61001 167.145 6.76501 167.145 8.14001C167.145 8.85501 167.42 9.46001 167.86 9.90001C163.845 15.235 151.91 29.7 135.355 36.08C127.6 38.335 120.175 41.305 113.08 44.88C131.01 31.02 140.25 16.94 143.385 11.66C143.66 11.77 143.935 11.825 144.21 11.825C145.585 11.825 146.74 10.67 146.74 9.29501C146.74 7.92001 145.585 6.76501 144.21 6.76501C142.835 6.76501 141.68 7.92001 141.68 9.29501C141.68 10.12 142.065 10.78 142.67 11.275C139.37 16.885 129.03 32.45 108.68 47.19V47.245C106.26 48.565 103.84 49.995 101.53 51.48C101.42 51.535 101.255 51.59 101.145 51.645V51.7C96.085 54.945 91.3 58.52 86.79 62.425C89.65 58.795 93.885 52.69 97.955 44.495C98.505 44.165 102.41 41.8 105.71 36.025C108.9 30.415 112.145 20.46 109.34 4.67501L109.065 3.08001L108.57 4.62001C108.57 4.67501 106.59 10.56 101.035 19.085C96.965 25.355 97.295 34.43 97.46 39.875C97.515 41.69 97.57 43.23 97.405 43.835C90.64 57.64 83.105 65.615 82.995 65.725L83.05 65.78C78.32 70.125 73.92 74.855 69.85 79.86C77.275 66.11 78.54 52.195 78.76 46.64C79.97 46.475 80.905 45.43 80.905 44.165C80.905 42.79 79.75 41.635 78.375 41.635C77 41.635 75.845 42.79 75.845 44.165C75.845 45.43 76.725 46.42 77.935 46.64C77.715 52.91 76.065 70.015 65.56 85.36L65.615 85.415C63.195 88.715 60.995 92.125 58.905 95.645C58.85 95.7 58.795 95.7 58.795 95.755C47.19 115.39 40.535 138.27 40.535 162.69C40.535 199.1 55.385 232.155 79.31 256.025C67.375 250.47 59.84 242.935 55.495 237.38C52.415 233.475 50.545 230.065 49.5 227.92C50.105 227.535 50.49 226.93 50.6 226.215C50.82 224.84 49.885 223.52 48.51 223.355C47.135 223.135 45.815 224.07 45.65 225.445C45.43 226.82 46.365 228.14 47.74 228.305C48.07 228.36 48.455 228.36 48.785 228.25C49.83 230.395 51.755 233.915 54.835 237.875C59.455 243.815 67.76 251.955 81.015 257.675C83.105 259.71 85.305 261.69 87.56 263.56C87.89 263.89 88.22 264.22 88.605 264.495L88.66 264.44C90.695 266.09 92.785 267.685 94.875 269.28C88.715 266.2 82.94 263.615 77.66 261.47L78.155 261.415L77.66 260.865C62.205 243.155 31.405 245.96 27.06 247.61L26.015 247.995L27.115 248.325C29.37 249.095 31.79 250.14 35.145 251.68C38.995 253.44 43.725 255.585 50.6 258.225C58.08 261.14 65.945 261.745 71.225 261.745C73.26 261.745 74.91 261.635 76.01 261.58C82.995 264.385 90.915 267.905 99.385 272.415V272.36C103.73 275.275 108.24 277.915 112.86 280.28C93.555 274.45 73.425 273.075 66.55 272.745C66.385 271.645 65.615 270.765 64.46 270.545C63.085 270.325 61.765 271.26 61.6 272.635C61.38 274.01 62.315 275.33 63.69 275.495C65.01 275.715 66.275 274.835 66.55 273.515C74.03 273.845 97.35 275.495 118.085 282.755V282.7C121.22 284.13 124.465 285.45 127.765 286.66C127.82 286.66 127.82 286.715 127.875 286.715C128.095 286.77 128.26 286.88 128.48 286.935C108.02 283.195 89.265 285.395 82.72 286.385C82.445 285.505 81.675 284.845 80.74 284.68C79.365 284.46 78.045 285.395 77.88 286.77C77.66 288.145 78.595 289.465 79.97 289.63C81.345 289.85 82.665 288.915 82.83 287.54C82.83 287.375 82.83 287.265 82.83 287.155C90.145 286.055 113.08 283.36 136.455 289.465C144.925 291.885 153.725 293.48 162.745 294.14C154.275 294.855 146.575 296.175 139.92 297.77C139.48 297.715 110.99 293.04 99.715 314.38L99.165 315.425L100.21 314.985C100.32 314.93 109.615 310.915 117.37 310.64C125.675 310.31 136.4 306.02 140.085 298.595C148.665 296.56 158.895 294.965 170.445 294.525C171.16 294.525 171.82 294.525 172.535 294.525C176.495 294.525 180.4 294.36 184.25 293.975C169.18 298.815 157.19 309.375 152.9 313.555C152.57 313.335 152.24 313.17 151.855 313.115C150.48 312.895 149.16 313.83 148.995 315.205C148.775 316.58 149.71 317.9 151.085 318.065C152.46 318.285 153.78 317.35 153.945 315.975C154.055 315.26 153.89 314.6 153.505 314.105C158.235 309.54 172.15 297.33 189.255 293.425C197.395 292.38 205.315 290.62 212.96 288.145C193.16 299.035 181.83 311.41 177.98 316.085C177.705 315.975 177.485 315.865 177.155 315.81C175.78 315.59 174.46 316.525 174.295 317.9C174.075 319.275 175.01 320.595 176.385 320.76C177.76 320.98 179.08 320.045 179.245 318.67C179.355 317.9 179.08 317.13 178.585 316.58C182.71 311.575 195.36 297.825 217.8 286.44C220.385 285.505 222.97 284.46 225.445 283.36C225.61 283.305 225.775 283.25 225.885 283.195V283.14C231.44 280.665 236.83 277.805 242 274.615C238.645 277.75 233.31 283.195 227.975 290.785C227.37 291.005 223.19 292.765 219.01 297.935C214.94 302.94 210.21 312.29 210.54 328.295L210.595 329.89L211.31 328.46C211.31 328.405 214.225 322.905 220.99 315.37C225.995 309.815 227.095 300.795 227.755 295.405C227.975 293.645 228.195 292.05 228.415 291.5C237.27 278.96 245.96 272.25 246.125 272.14L246.07 272.03C251.295 268.51 256.245 264.605 260.92 260.425C251.515 272.8 248.27 286.22 247.28 291.665C246.07 291.665 245.025 292.545 244.805 293.81C244.585 295.185 245.52 296.505 246.895 296.67C248.27 296.89 249.59 295.955 249.755 294.58C249.975 293.315 249.205 292.16 248.05 291.775C249.15 285.67 253.165 269.115 265.98 255.695L265.925 255.64C269.39 252.175 272.635 248.545 275.66 244.695C275.77 244.64 275.825 244.585 275.825 244.585L275.77 244.53C293.755 222.09 304.48 193.6 304.48 162.635ZM253.275 50.27C257.235 49.335 267.74 47.355 278.245 49.665C285.395 51.205 290.455 52.635 294.47 53.735C297.44 54.56 299.695 55.165 301.73 55.55C295.185 58.135 269.72 63.47 253.165 51.04C269.995 54.725 280.61 54.835 280.775 54.835V54.01C280.61 54.065 270.05 53.955 253.275 50.27ZM204.38 8.41501C210.595 7.20501 217.415 3.41001 219.89 1.92501C213.07 19.69 192.775 22.495 186.065 22.935C201.465 16.39 210.21 9.68001 210.32 9.57001L209.825 8.91001C209.66 9.02001 200.585 15.95 184.635 22.66C187.275 15.62 196.57 9.95501 204.38 8.41501ZM101.86 19.47C105.875 13.31 108.02 8.52501 108.9 6.21501C112.695 29.975 102.41 40.15 98.835 42.9C102.245 35.75 105.38 27.17 107.195 17.435L106.37 17.27C104.61 26.62 101.64 34.87 98.395 41.8C98.395 41.25 98.34 40.535 98.34 39.71C98.23 34.485 97.9 25.52 101.86 19.47ZM76.12 260.755C60.17 254.375 49.39 252.01 49.225 251.955L49.06 252.725C49.225 252.78 59.235 254.98 74.195 260.865C69.41 261.085 59.895 260.975 50.875 257.455C44.055 254.76 39.27 252.615 35.475 250.91C32.67 249.645 30.58 248.655 28.6 247.94C35.585 246.4 62.26 245.08 76.56 260.7C76.45 260.7 76.285 260.755 76.12 260.755ZM117.37 309.815C111.045 310.035 103.73 312.73 101.035 313.775C108.845 300.245 124.08 298.1 132.935 298.1C134.86 298.1 136.51 298.21 137.72 298.32C121.495 302.39 111.815 307.615 111.65 307.725L112.035 308.44C112.2 308.33 122.265 302.94 139.095 298.815C135.355 305.36 125.345 309.54 117.37 309.815ZM226.985 295.405C226.325 300.685 225.225 309.54 220.385 314.93C215.49 320.375 212.575 324.775 211.31 326.865C211.31 302.775 223.025 294.36 226.985 292.215C222.53 298.705 218.075 306.68 214.72 316.085L215.49 316.36C218.68 307.395 222.915 299.695 227.205 293.37C227.15 293.92 227.04 294.635 226.985 295.405ZM82.115 257.455L82.17 257.51C82.17 257.51 82.17 257.455 82.115 257.455ZM275.11 244.2C273.185 245.52 259.27 254.32 240.13 250.195C235.015 240.79 225.94 232.43 213.785 225.885C202.07 219.615 197.67 216.81 197.615 216.81L196.735 216.26L197.01 217.25C205.535 247.94 225.06 251.955 234.685 251.955C238.04 251.955 240.185 251.46 240.24 251.46L240.735 251.35L240.625 251.13C244.035 251.79 247.225 252.12 250.25 252.12C261.36 252.12 269.775 248.27 273.57 246.125C269.555 250.965 265.265 255.475 260.59 259.71C242 269.225 218.625 263.835 211.255 261.745C211.255 261.69 211.31 261.635 211.31 261.58C211.53 260.205 210.595 258.885 209.22 258.72C207.845 258.5 206.525 259.435 206.36 260.81C206.14 262.185 207.075 263.505 208.45 263.67C209.495 263.835 210.485 263.34 210.98 262.515C215.16 263.725 224.565 265.98 235.4 265.98C242.88 265.98 250.965 264.88 258.5 261.635C248.6 270.27 237.38 277.42 225.17 282.755C209.88 287.705 194.15 285.45 181.225 281.325C177.98 276.76 171.6 272.58 162.36 268.895C150.535 264.22 143.11 260.095 143 260.04L141.9 259.435L142.45 260.59C151.635 279.785 166.98 282.645 175.285 282.645C178.75 282.645 181.005 282.15 181.115 282.15C188.87 284.625 197.615 286.44 206.635 286.44C210.87 286.44 215.16 286.055 219.45 285.12C209.935 288.805 199.925 291.39 189.475 292.71V292.655C189.31 292.71 189.145 292.71 188.98 292.765C187.77 292.93 186.505 293.04 185.24 293.15V293.095C162.14 291.335 145.42 281.655 139.865 278.025C139.975 277.805 140.03 277.585 140.085 277.365C140.305 275.99 139.37 274.67 137.995 274.505C136.62 274.285 135.3 275.22 135.135 276.595C134.915 277.97 135.85 279.29 137.225 279.455C138.05 279.565 138.875 279.29 139.425 278.685C144.705 282.15 159.94 290.95 181.06 293.48C178.97 293.59 176.935 293.7 174.845 293.755V293.645C173.36 293.645 171.875 293.7 170.39 293.755C155.54 293.535 141.295 290.785 128.04 286C120.34 281.545 114.62 275.495 110.33 269.28C109.89 264.88 108.405 254.76 104.115 245.52C98.505 233.53 97.35 225.995 97.35 225.885L97.075 224.07L96.58 225.83C87.065 258.115 109.725 271.755 109.945 271.865L110.605 272.25L110.55 271.48C110.55 271.48 110.55 271.26 110.495 270.82C114.07 275.77 118.635 280.555 124.355 284.515C111.045 279.235 98.78 271.81 88 262.735C72.545 248.27 70.125 226.6 69.795 218.35C70.73 218.075 71.445 217.305 71.61 216.315C71.83 214.94 70.895 213.62 69.52 213.455C68.145 213.235 66.825 214.17 66.66 215.545C66.44 216.92 67.375 218.24 68.75 218.405C68.805 218.405 68.915 218.405 68.97 218.405C69.3 225.61 71.17 242.935 81.73 256.905C81.675 256.85 81.565 256.85 81.51 256.795C56.815 232.925 41.415 199.485 41.415 162.525C41.415 138.27 48.07 115.5 59.565 95.975C60.555 95.095 66.385 90.035 76.065 87.45C81.51 85.965 86.845 85.635 91.96 86.02C98.45 94.71 108.845 101.75 122.155 106.37C134.695 110.715 139.48 112.805 139.535 112.805L140.525 113.245L140.085 112.31C122.265 73.26 92.345 85.195 92.015 85.305H91.96C75.955 84.15 65.01 90.86 60.775 94.05C63.635 89.43 66.77 84.975 70.18 80.74C87.065 68.09 111.375 69.74 119.02 70.62C119.02 70.675 119.02 70.73 119.02 70.84C119.02 72.215 120.175 73.37 121.55 73.37C122.925 73.37 124.08 72.215 124.08 70.84C124.08 69.465 122.925 68.31 121.55 68.31C120.505 68.31 119.625 68.97 119.24 69.85C111.87 68.97 89.045 67.375 72.05 78.485C80.63 68.255 90.75 59.345 102.025 52.14C116.38 44.825 132.275 44.605 145.695 46.695C149.655 50.71 156.53 53.845 166.265 55.99C178.695 58.795 186.67 61.655 186.725 61.71L187.935 62.15L187.22 61.105C170.115 36.245 145.915 45.76 145.64 45.87C133.87 44.055 120.23 44.055 107.36 48.95C117.425 43.12 128.37 38.665 139.92 35.695C162.965 33.88 180.95 40.755 187 43.505C186.945 43.725 186.89 43.945 186.89 44.22C186.89 45.595 188.045 46.75 189.42 46.75C190.795 46.75 191.95 45.595 191.95 44.22C191.95 42.845 190.795 41.69 189.42 41.69C188.54 41.69 187.825 42.13 187.33 42.79C181.61 40.205 165.44 33.99 144.43 34.65C153.505 32.67 162.91 31.625 172.535 31.625C181.72 31.625 190.63 32.56 199.32 34.375C206.635 37.18 212.52 41.415 217.195 46.035C217.91 49.06 220.99 60.39 227.425 69.96C234.85 80.905 237.16 88.22 237.215 88.275L237.765 90.035L237.985 88.22C242.33 54.835 217.8 44.935 217.525 44.825L216.81 44.55V44.605C213.07 41.085 208.67 37.84 203.445 35.31C217.47 38.72 230.615 44.385 242.44 51.865C259.435 63.635 264.33 83.435 265.65 91.245C264.715 91.63 264.055 92.51 264.055 93.61C264.055 94.985 265.21 96.14 266.585 96.14C267.96 96.14 269.115 94.985 269.115 93.61C269.115 92.235 267.96 91.08 266.585 91.08C266.53 91.08 266.53 91.08 266.475 91.08C265.32 84.205 261.47 68.42 249.37 56.54C282.205 80.41 303.6 119.075 303.6 162.69C303.71 193.435 292.985 221.815 275.11 244.2ZM239.305 250.8C237.105 251.185 230.615 251.9 223.19 249.205C208.505 243.925 201.465 229.515 198.11 217.965C199.925 219.065 204.6 221.815 213.455 226.545C225.225 232.815 234.025 240.9 239.085 249.865C231.11 247.94 222.31 243.815 213.07 235.95L212.52 236.555C222.035 244.695 231.165 248.93 239.305 250.8ZM179.52 281.49C174.075 282.205 154.825 282.975 143.77 261.25C146.3 262.57 152.845 265.87 162.085 269.555C170.555 272.91 176.55 276.705 179.85 280.775C163.9 275.44 152.57 267.41 152.35 267.245L151.855 267.905C152.185 268.07 163.515 276.1 179.52 281.49ZM109.67 269.555C109.725 270.05 109.78 270.435 109.78 270.765C106.205 268.29 89.705 255.09 96.965 227.7C97.625 230.56 99.385 237.05 103.51 245.85C107.305 253.99 108.845 262.845 109.45 267.74C100.43 253.825 98.505 239.36 98.505 239.14L97.68 239.25C97.735 239.47 99.77 255.035 109.67 269.555ZM94.105 85.525C100.54 83.71 123.915 79.695 138.985 111.76C137.005 110.99 131.945 108.955 122.485 105.71C109.67 101.255 99.55 94.545 93.115 86.24C104.17 87.34 114.07 91.905 121.33 96.36L121.77 95.645C111.54 89.32 102.19 86.405 94.105 85.525ZM147.455 46.09C152.68 44.55 171.6 40.755 185.9 60.5C183.205 59.62 176.22 57.365 166.485 55.165C157.575 53.185 151.085 50.38 147.18 46.86C163.79 49.665 176.22 55.825 176.44 55.935L176.825 55.22C176.55 55.11 164.12 48.95 147.455 46.09ZM218.405 45.98C223.025 48.29 240.24 58.905 237.435 86.35C236.335 83.6 233.585 77.495 228.14 69.41C222.475 60.995 219.45 51.26 218.35 47.08C230.395 59.675 234.025 74.965 234.08 75.185L234.85 75.02C234.85 74.8 231 58.85 218.405 45.98ZM143.22 188.485C141.185 188.375 139.7 188.1 138.82 187.77C137.94 187.385 137.28 186.725 137.005 185.68C136.675 184.69 136.51 183.04 136.51 180.73V136.18C136.51 133.925 136.675 132.275 137.005 131.23C137.335 130.24 137.94 129.525 138.82 129.14C139.7 128.755 141.185 128.535 143.22 128.425V126.61C140.305 126.775 135.74 126.885 129.58 126.885C123.53 126.885 118.855 126.775 115.5 126.61V128.425C117.48 128.535 118.91 128.81 119.845 129.14C120.78 129.525 121.385 130.185 121.715 131.23C122.045 132.275 122.21 133.87 122.21 136.18V157.41H98.395V136.18C98.395 133.925 98.56 132.275 98.89 131.23C99.22 130.24 99.825 129.525 100.705 129.14C101.585 128.755 103.07 128.535 105.105 128.425V126.61C101.86 126.775 97.35 126.885 91.52 126.885C85.085 126.885 80.355 126.775 77.33 126.61V128.425C79.31 128.535 80.74 128.81 81.675 129.14C82.61 129.525 83.215 130.185 83.545 131.23C83.875 132.275 84.04 133.87 84.04 136.18V180.73C84.04 182.985 83.875 184.635 83.545 185.68C83.215 186.725 82.61 187.385 81.675 187.77C80.74 188.155 79.31 188.375 77.33 188.485V190.3C80.41 190.135 85.14 190.025 91.52 190.025C97.35 190.025 101.86 190.135 105.105 190.3V188.485C103.07 188.375 101.585 188.1 100.705 187.77C99.825 187.385 99.165 186.725 98.89 185.68C98.56 184.69 98.395 183.04 98.395 180.73V159.17H122.21V180.73C122.21 182.985 122.045 184.635 121.715 185.68C121.385 186.725 120.78 187.385 119.845 187.77C118.91 188.155 117.48 188.375 115.5 188.485V190.3C118.855 190.135 123.53 190.025 129.58 190.025C135.74 190.025 140.305 190.135 143.22 190.3V188.485ZM140.47 197.78C139.04 197.78 137.61 198.99 137.61 202.4C137.61 205.81 139.04 207.02 140.47 207.02C141.9 207.02 143.33 205.81 143.33 202.4C143.33 198.99 141.9 197.78 140.47 197.78ZM140.47 206.415C139.59 206.415 138.82 205.645 138.82 202.455C138.82 199.21 139.59 198.44 140.47 198.44C141.295 198.44 142.065 199.265 142.065 202.455C142.12 205.59 141.295 206.415 140.47 206.415ZM235.84 126.94C222.805 126.94 213.51 126.83 208.065 126.665C208.505 132.33 208.67 137.445 208.67 141.955C208.67 144.76 208.56 147.07 208.395 148.775H210.485C211.475 143.77 212.74 139.755 214.17 136.895C215.6 133.98 217.305 131.89 219.34 130.625C221.32 129.36 223.795 128.755 226.655 128.755H228.635V180.07C228.635 182.6 228.36 184.415 227.865 185.57C227.37 186.725 226.435 187.495 225.17 187.88C223.905 188.265 221.815 188.485 219.01 188.54V190.355C226.215 190.19 231.66 190.08 235.455 190.08C239.305 190.08 244.97 190.19 252.505 190.355V188.54C249.7 188.485 247.665 188.265 246.345 187.88C245.08 187.495 244.145 186.725 243.65 185.57C243.155 184.415 242.88 182.6 242.88 180.07V128.755H244.97C249.26 128.755 252.67 130.24 255.145 133.265C257.62 136.235 259.6 141.46 261.03 148.83H263.12C262.955 147.07 262.845 144.815 262.845 142.01C262.845 137.5 263.065 132.44 263.45 126.72C258.115 126.885 248.875 126.94 235.84 126.94ZM187.275 204.325C189.365 202.29 189.97 201.355 189.97 200.145C189.97 198.77 189.2 197.835 187.44 197.835C186.065 197.835 184.855 198.495 184.69 199.925C184.855 200.2 185.075 200.365 185.35 200.365C185.735 200.365 185.955 200.09 186.12 199.43L186.395 198.495C186.67 198.44 186.945 198.44 187.11 198.44C188.1 198.44 188.76 199.155 188.76 200.255C188.76 201.3 188.155 202.455 186.78 203.885C186.175 204.49 185.46 205.26 184.745 205.975V206.855H190.355V205.755H185.79C186.34 205.205 186.89 204.71 187.275 204.325ZM209.275 197.835H208.505L204.435 203.445V204.105H208.175V206.8H209.275V204.105H210.705V203.28H209.275V197.835ZM208.175 203.335H205.26L208.175 199.265V203.335ZM200.64 204.325C202.73 202.29 203.335 201.355 203.335 200.145C203.335 198.77 202.565 197.835 200.805 197.835C199.43 197.835 198.22 198.495 198.055 199.925C198.22 200.2 198.44 200.365 198.715 200.365C199.1 200.365 199.32 200.09 199.485 199.43L199.76 198.495C200.035 198.44 200.31 198.44 200.475 198.44C201.465 198.44 202.125 199.155 202.125 200.255C202.125 201.3 201.52 202.455 200.145 203.885C199.54 204.49 198.825 205.26 198.11 205.975V206.855H203.72V205.755H199.155C199.705 205.205 200.255 204.71 200.64 204.325ZM194.205 197.78C192.775 197.78 191.345 198.99 191.345 202.4C191.345 205.81 192.775 207.02 194.205 207.02C195.635 207.02 197.065 205.81 197.065 202.4C197.01 198.99 195.635 197.78 194.205 197.78ZM194.205 206.415C193.325 206.415 192.555 205.645 192.555 202.455C192.555 199.21 193.325 198.44 194.205 198.44C195.03 198.44 195.8 199.265 195.8 202.455C195.8 205.59 195.03 206.415 194.205 206.415ZM187.165 165.44C187.165 163.46 186.725 161.7 185.79 160.105C184.855 158.565 183.425 157.355 181.445 156.53C185.295 155.32 187.88 154.44 189.2 153.78C190.685 153.065 191.895 152.075 192.83 150.81C193.765 149.545 194.205 148.115 194.205 146.41C194.205 144.265 193.49 142.505 192.005 141.24C190.575 139.975 188.705 139.315 186.505 139.315C185.02 139.315 183.645 139.59 182.49 140.195C181.335 140.745 180.73 141.68 180.73 142.945C180.73 143.77 181.005 144.43 181.555 144.87C182.105 145.31 182.765 145.53 183.48 145.53C184.305 145.53 184.965 145.31 185.57 144.815C186.12 144.32 186.45 143.715 186.45 143C186.45 142.56 186.34 142.065 186.065 141.625C185.79 141.13 185.46 140.8 184.965 140.58C185.13 140.25 185.68 140.085 186.56 140.085C188.21 140.085 189.64 140.58 190.85 141.625C192.06 142.67 192.665 143.88 192.665 145.365C192.665 146.355 192.335 147.235 191.675 148.06C191.015 148.885 189.86 149.655 188.155 150.425C187 150.975 185.735 151.415 184.305 151.91C182.93 152.35 181.17 152.9 179.08 153.505L175.34 154.605C172.92 155.43 171.105 156.475 169.895 157.74C168.685 159.005 168.08 160.49 168.08 162.25C168.08 164.285 168.74 165.825 170.06 166.815C171.38 167.86 172.865 168.355 174.57 168.355C176.165 168.355 177.595 167.97 178.86 167.145C180.18 166.32 180.785 165.22 180.785 163.845C180.785 163.02 180.51 162.305 180.015 161.81C179.52 161.26 178.86 161.04 177.98 161.04C177.1 161.04 176.44 161.26 175.89 161.755C175.34 162.25 175.065 162.91 175.065 163.735C175.065 164.56 175.285 165.165 175.78 165.55C176.275 165.99 176.825 166.265 177.485 166.375C177.375 166.705 176.99 166.98 176.275 167.2C175.56 167.42 174.955 167.53 174.35 167.53C173.195 167.53 172.095 167.145 171.05 166.375C170.005 165.605 169.51 164.615 169.51 163.35C169.51 162.305 169.895 161.425 170.72 160.71C171.545 159.995 172.645 159.335 174.13 158.785C175.45 158.29 177.43 157.63 180.18 156.805C182.215 157.63 183.645 158.73 184.36 160.16C185.075 161.59 185.46 163.02 185.46 164.395C185.46 166.32 184.855 168.025 183.59 169.455C182.325 170.885 180.675 172.04 178.53 172.81C176.44 173.58 174.13 173.965 171.655 173.965C169.015 173.965 166.595 173.525 164.45 172.645C162.305 171.765 160.655 170.445 159.39 168.74C158.18 167.035 157.575 165 157.575 162.635C157.575 158.29 159.83 155.375 164.395 154.055C165.22 154.385 165.88 154.66 166.485 154.88C167.09 155.1 167.64 155.21 168.19 155.21C168.63 155.21 169.015 155.1 169.29 154.935C169.565 154.77 169.675 154.495 169.675 154.22C169.675 153.835 169.51 153.56 169.125 153.34C168.74 153.12 168.245 153.01 167.585 153.01C166.65 153.01 165.55 153.12 164.34 153.34C162.58 151.69 161.645 149.71 161.645 147.345C161.645 145.365 162.195 143.88 163.35 142.78C164.45 141.68 165.935 141.13 167.75 141.13C168.795 141.13 169.675 141.295 170.39 141.625C171.105 141.955 171.545 142.34 171.71 142.78C170.885 142.835 170.225 143.165 169.73 143.715C169.18 144.265 168.96 144.925 168.96 145.695C168.96 146.52 169.235 147.125 169.785 147.62C170.335 148.115 170.94 148.335 171.71 148.335C172.48 148.335 173.14 148.06 173.745 147.565C174.35 147.07 174.625 146.41 174.625 145.53C174.625 144.925 174.46 144.32 174.13 143.66C173.8 143 173.305 142.45 172.7 141.9C171.38 140.855 169.565 140.305 167.255 140.305C165.385 140.305 163.79 140.635 162.47 141.24C161.15 141.845 160.105 142.67 159.445 143.66C158.785 144.65 158.4 145.75 158.4 146.905C158.4 148.225 158.84 149.49 159.775 150.755C160.71 151.965 161.975 152.955 163.735 153.67C162.47 154 161.095 154.55 159.665 155.375C158.18 156.2 156.915 157.41 155.76 159.005C154.605 160.6 154.055 162.525 154.055 164.835C154.055 167.475 154.825 169.73 156.365 171.71C157.905 173.69 159.995 175.23 162.58 176.275C165.165 177.32 168.025 177.87 171.05 177.87C174.295 177.87 177.155 177.265 179.52 176.11C181.94 174.955 183.81 173.415 185.075 171.49C186.505 169.675 187.165 167.64 187.165 165.44ZM170.445 204.325C172.535 202.29 173.14 201.355 173.14 200.145C173.14 198.77 172.37 197.835 170.61 197.835C169.235 197.835 168.025 198.495 167.86 199.925C168.025 200.2 168.245 200.365 168.52 200.365C168.905 200.365 169.125 200.09 169.29 199.43L169.565 198.495C169.84 198.44 170.115 198.44 170.28 198.44C171.27 198.44 171.93 199.155 171.93 200.255C171.93 201.3 171.325 202.455 169.95 203.885C169.345 204.49 168.63 205.26 167.915 205.975V206.855H173.525V205.755H168.96C169.51 205.205 170.06 204.71 170.445 204.325ZM164.01 197.78C162.58 197.78 161.15 198.99 161.15 202.4C161.15 205.81 162.58 207.02 164.01 207.02C165.44 207.02 166.87 205.81 166.87 202.4C166.815 198.99 165.44 197.78 164.01 197.78ZM164.01 206.415C163.13 206.415 162.36 205.645 162.36 202.455C162.36 199.21 163.13 198.44 164.01 198.44C164.835 198.44 165.605 199.265 165.605 202.455C165.605 205.59 164.835 206.415 164.01 206.415ZM155.54 201.3C154.99 201.3 154.605 201.74 154.605 202.29C154.605 202.84 155.045 203.225 155.54 203.225C156.09 203.225 156.475 202.785 156.475 202.29C156.53 201.74 156.09 201.3 155.54 201.3ZM147.95 202.18C149.05 201.795 149.71 200.97 149.71 199.98C149.71 198.715 148.665 197.835 147.125 197.835C145.86 197.835 144.87 198.385 144.595 199.595C144.705 199.98 144.98 200.09 145.255 200.09C145.75 200.09 145.86 199.815 146.025 199.21L146.19 198.55C146.465 198.495 146.685 198.495 146.85 198.495C147.95 198.495 148.555 199.045 148.555 200.09C148.555 201.245 147.84 201.905 146.575 201.905H146.025V202.565H146.685C148.115 202.565 148.775 203.28 148.775 204.49C148.775 205.7 148.115 206.47 146.74 206.47C146.52 206.47 146.245 206.47 145.97 206.36L145.805 205.645C145.64 204.985 145.475 204.655 145.035 204.655C144.76 204.655 144.54 204.765 144.375 205.095C144.595 206.47 145.64 207.02 146.96 207.02C148.775 207.02 150.04 205.865 150.04 204.38C150.04 203.28 149.325 202.455 147.95 202.18ZM179.08 201.3C178.53 201.3 178.145 201.74 178.145 202.29C178.145 202.84 178.585 203.225 179.08 203.225C179.63 203.225 180.015 202.785 180.015 202.29C180.015 201.74 179.575 201.3 179.08 201.3Z" fill="white"/>
</svg>
