<svg width="279" height="330" viewBox="0 0 279 330" fill="none" xmlns="http://www.w3.org/2000/svg">
<path d="M278.48 162.635C278.48 118.525 256.7 79.365 223.315 55.44C236.46 59.015 245.425 65.45 250.705 70.345C254.335 73.7 256.755 76.835 258.075 78.76C257.58 79.2 257.25 79.86 257.25 80.63C257.25 82.005 258.405 83.16 259.78 83.16C261.155 83.16 262.31 82.005 262.31 80.63C262.31 79.255 261.155 78.1 259.78 78.1C259.45 78.1 259.065 78.155 258.79 78.32C257.415 76.34 254.995 73.205 251.31 69.795C245.7 64.57 235.965 57.585 221.5 54.12V54.175C220.015 53.13 218.475 52.14 216.935 51.15C216.385 50.765 215.835 50.38 215.23 50.05V50.105C212.92 48.73 210.61 47.355 208.245 46.145C214.405 48.07 220.125 49.61 225.295 50.765C233.71 57.75 244.655 59.84 254.39 59.84C265.555 59.84 275.125 57.09 277.27 55.825L278.26 55.275L277.105 55.11C274.74 54.725 272.21 54.01 268.635 53.075C264.565 51.975 259.56 50.6 252.355 49.005C239.595 46.2 226.835 49.61 225.46 49.995C219.025 48.51 211.71 46.53 203.79 43.835V43.89C198.895 41.525 193.89 39.49 188.72 37.73C195.705 38.665 202.635 39.05 208.96 39.05C220.51 39.05 230.025 37.895 234.315 37.29C234.645 38.28 235.58 39.05 236.68 39.05C238.055 39.05 239.21 37.895 239.21 36.52C239.21 35.145 238.055 33.99 236.68 33.99C235.305 33.99 234.15 35.09 234.15 36.52C226.945 37.565 205 40.095 183.55 36.135C180.25 35.145 176.95 34.32 173.54 33.605H173.485C172.825 33.44 172.11 33.33 171.45 33.22C172.33 33.22 173.21 33.275 174.09 33.275C193.725 33.275 210.335 28.325 216.275 26.29C216.715 27.06 217.54 27.61 218.475 27.61C219.85 27.61 221.005 26.455 221.005 25.08C221.005 23.705 219.85 22.55 218.475 22.55C217.1 22.55 215.945 23.705 215.945 25.08C215.945 25.245 215.945 25.41 216 25.52C209.07 27.885 187.455 34.32 163.475 31.955C157.92 31.24 152.31 30.855 146.535 30.855C142.63 30.855 138.725 31.02 134.93 31.35C143.62 29.26 151.32 26.675 157.92 23.98H157.975C159.46 23.98 187.4 23.65 194.99 1.26501L195.375 0.165009L194.385 0.770009C194.275 0.825009 185.75 6.27001 178.16 7.75501C169.965 9.35001 160.065 15.345 157.59 23.21C148.405 26.95 137.075 30.58 123.875 32.78C120.685 33.33 117.495 33.99 114.36 34.815C128.66 27.665 138.945 15.29 142.575 10.395C142.905 10.56 143.29 10.67 143.675 10.67C145.05 10.67 146.205 9.51501 146.205 8.14001C146.205 6.76501 145.05 5.61001 143.675 5.61001C142.3 5.61001 141.145 6.76501 141.145 8.14001C141.145 8.85501 141.42 9.46001 141.86 9.90001C137.845 15.235 125.91 29.7 109.355 36.08C101.6 38.335 94.175 41.305 87.08 44.88C105.01 31.02 114.25 16.94 117.385 11.66C117.66 11.77 117.935 11.825 118.21 11.825C119.585 11.825 120.74 10.67 120.74 9.29501C120.74 7.92001 119.585 6.76501 118.21 6.76501C116.835 6.76501 115.68 7.92001 115.68 9.29501C115.68 10.12 116.065 10.78 116.67 11.275C113.37 16.885 103.03 32.45 82.68 47.19V47.245C80.26 48.565 77.84 49.995 75.53 51.48C75.42 51.535 75.255 51.59 75.145 51.645V51.7C70.085 54.945 65.3 58.52 60.79 62.425C63.65 58.795 67.885 52.69 71.955 44.495C72.505 44.165 76.41 41.8 79.71 36.025C82.9 30.415 86.145 20.46 83.34 4.67501L83.065 3.08001L82.57 4.62001C82.57 4.67501 80.59 10.56 75.035 19.085C70.965 25.355 71.295 34.43 71.46 39.875C71.515 41.69 71.57 43.23 71.405 43.835C64.64 57.64 57.105 65.615 56.995 65.725L57.05 65.78C52.32 70.125 47.92 74.855 43.85 79.86C51.275 66.11 52.54 52.195 52.76 46.64C53.97 46.475 54.905 45.43 54.905 44.165C54.905 42.79 53.75 41.635 52.375 41.635C51 41.635 49.845 42.79 49.845 44.165C49.845 45.43 50.725 46.42 51.935 46.64C51.715 52.91 50.065 70.015 39.56 85.36L39.615 85.415C37.195 88.715 34.995 92.125 32.905 95.645C32.85 95.7 32.795 95.7 32.795 95.755C21.19 115.39 14.535 138.27 14.535 162.69C14.535 199.1 29.385 232.155 53.31 256.025C41.375 250.47 33.84 242.935 29.495 237.38C26.415 233.475 24.545 230.065 23.5 227.92C24.105 227.535 24.49 226.93 24.6 226.215C24.82 224.84 23.885 223.52 22.51 223.355C21.135 223.135 19.815 224.07 19.65 225.445C19.43 226.82 20.365 228.14 21.74 228.305C22.07 228.36 22.455 228.36 22.785 228.25C23.83 230.395 25.755 233.915 28.835 237.875C33.455 243.815 41.76 251.955 55.015 257.675C57.105 259.71 59.305 261.69 61.56 263.56C61.89 263.89 62.22 264.22 62.605 264.495L62.66 264.44C64.695 266.09 66.785 267.685 68.875 269.28C62.715 266.2 56.94 263.615 51.66 261.47L52.155 261.415L51.66 260.865C36.205 243.155 5.40502 245.96 1.06002 247.61L0.0150146 247.995L1.11501 248.325C3.37001 249.095 5.79002 250.14 9.14502 251.68C12.995 253.44 17.725 255.585 24.6 258.225C32.08 261.14 39.945 261.745 45.225 261.745C47.26 261.745 48.91 261.635 50.01 261.58C56.995 264.385 64.915 267.905 73.385 272.415V272.36C77.73 275.275 82.24 277.915 86.86 280.28C67.555 274.45 47.425 273.075 40.55 272.745C40.385 271.645 39.615 270.765 38.46 270.545C37.085 270.325 35.765 271.26 35.6 272.635C35.38 274.01 36.315 275.33 37.69 275.495C39.01 275.715 40.275 274.835 40.55 273.515C48.03 273.845 71.35 275.495 92.085 282.755V282.7C95.22 284.13 98.465 285.45 101.765 286.66C101.82 286.66 101.82 286.715 101.875 286.715C102.095 286.77 102.26 286.88 102.48 286.935C82.02 283.195 63.265 285.395 56.72 286.385C56.445 285.505 55.675 284.845 54.74 284.68C53.365 284.46 52.045 285.395 51.88 286.77C51.66 288.145 52.595 289.465 53.97 289.63C55.345 289.85 56.665 288.915 56.83 287.54C56.83 287.375 56.83 287.265 56.83 287.155C64.145 286.055 87.08 283.36 110.455 289.465C118.925 291.885 127.725 293.48 136.745 294.14C128.275 294.855 120.575 296.175 113.92 297.77C113.48 297.715 84.99 293.04 73.715 314.38L73.165 315.425L74.21 314.985C74.32 314.93 83.615 310.915 91.37 310.64C99.675 310.31 110.4 306.02 114.085 298.595C122.665 296.56 132.895 294.965 144.445 294.525C145.16 294.525 145.82 294.525 146.535 294.525C150.495 294.525 154.4 294.36 158.25 293.975C143.18 298.815 131.19 309.375 126.9 313.555C126.57 313.335 126.24 313.17 125.855 313.115C124.48 312.895 123.16 313.83 122.995 315.205C122.775 316.58 123.71 317.9 125.085 318.065C126.46 318.285 127.78 317.35 127.945 315.975C128.055 315.26 127.89 314.6 127.505 314.105C132.235 309.54 146.15 297.33 163.255 293.425C171.395 292.38 179.315 290.62 186.96 288.145C167.16 299.035 155.83 311.41 151.98 316.085C151.705 315.975 151.485 315.865 151.155 315.81C149.78 315.59 148.46 316.525 148.295 317.9C148.075 319.275 149.01 320.595 150.385 320.76C151.76 320.98 153.08 320.045 153.245 318.67C153.355 317.9 153.08 317.13 152.585 316.58C156.71 311.575 169.36 297.825 191.8 286.44C194.385 285.505 196.97 284.46 199.445 283.36C199.61 283.305 199.775 283.25 199.885 283.195V283.14C205.44 280.665 210.83 277.805 216 274.615C212.645 277.75 207.31 283.195 201.975 290.785C201.37 291.005 197.19 292.765 193.01 297.935C188.94 302.94 184.21 312.29 184.54 328.295L184.595 329.89L185.31 328.46C185.31 328.405 188.225 322.905 194.99 315.37C199.995 309.815 201.095 300.795 201.755 295.405C201.975 293.645 202.195 292.05 202.415 291.5C211.27 278.96 219.96 272.25 220.125 272.14L220.07 272.03C225.295 268.51 230.245 264.605 234.92 260.425C225.515 272.8 222.27 286.22 221.28 291.665C220.07 291.665 219.025 292.545 218.805 293.81C218.585 295.185 219.52 296.505 220.895 296.67C222.27 296.89 223.59 295.955 223.755 294.58C223.975 293.315 223.205 292.16 222.05 291.775C223.15 285.67 227.165 269.115 239.98 255.695L239.925 255.64C243.39 252.175 246.635 248.545 249.66 244.695C249.77 244.64 249.825 244.585 249.825 244.585L249.77 244.53C267.755 222.09 278.48 193.6 278.48 162.635ZM227.275 50.27C231.235 49.335 241.74 47.355 252.245 49.665C259.395 51.205 264.455 52.635 268.47 53.735C271.44 54.56 273.695 55.165 275.73 55.55C269.185 58.135 243.72 63.47 227.165 51.04C243.995 54.725 254.61 54.835 254.775 54.835V54.01C254.61 54.065 244.05 53.955 227.275 50.27ZM178.38 8.41501C184.595 7.20501 191.415 3.41001 193.89 1.92501C187.07 19.69 166.775 22.495 160.065 22.935C175.465 16.39 184.21 9.68001 184.32 9.57001L183.825 8.91001C183.66 9.02001 174.585 15.95 158.635 22.66C161.275 15.62 170.57 9.95501 178.38 8.41501ZM75.86 19.47C79.875 13.31 82.02 8.52501 82.9 6.21501C86.695 29.975 76.41 40.15 72.835 42.9C76.245 35.75 79.38 27.17 81.195 17.435L80.37 17.27C78.61 26.62 75.64 34.87 72.395 41.8C72.395 41.25 72.34 40.535 72.34 39.71C72.23 34.485 71.9 25.52 75.86 19.47ZM50.12 260.755C34.17 254.375 23.39 252.01 23.225 251.955L23.06 252.725C23.225 252.78 33.235 254.98 48.195 260.865C43.41 261.085 33.895 260.975 24.875 257.455C18.055 254.76 13.27 252.615 9.47502 250.91C6.67002 249.645 4.58002 248.655 2.60002 247.94C9.58502 246.4 36.26 245.08 50.56 260.7C50.45 260.7 50.285 260.755 50.12 260.755ZM91.37 309.815C85.045 310.035 77.73 312.73 75.035 313.775C82.845 300.245 98.08 298.1 106.935 298.1C108.86 298.1 110.51 298.21 111.72 298.32C95.495 302.39 85.815 307.615 85.65 307.725L86.035 308.44C86.2 308.33 96.265 302.94 113.095 298.815C109.355 305.36 99.345 309.54 91.37 309.815ZM200.985 295.405C200.325 300.685 199.225 309.54 194.385 314.93C189.49 320.375 186.575 324.775 185.31 326.865C185.31 302.775 197.025 294.36 200.985 292.215C196.53 298.705 192.075 306.68 188.72 316.085L189.49 316.36C192.68 307.395 196.915 299.695 201.205 293.37C201.15 293.92 201.04 294.635 200.985 295.405ZM56.115 257.455L56.17 257.51C56.17 257.51 56.17 257.455 56.115 257.455ZM249.11 244.2C247.185 245.52 233.27 254.32 214.13 250.195C209.015 240.79 199.94 232.43 187.785 225.885C176.07 219.615 171.67 216.81 171.615 216.81L170.735 216.26L171.01 217.25C179.535 247.94 199.06 251.955 208.685 251.955C212.04 251.955 214.185 251.46 214.24 251.46L214.735 251.35L214.625 251.13C218.035 251.79 221.225 252.12 224.25 252.12C235.36 252.12 243.775 248.27 247.57 246.125C243.555 250.965 239.265 255.475 234.59 259.71C216 269.225 192.625 263.835 185.255 261.745C185.255 261.69 185.31 261.635 185.31 261.58C185.53 260.205 184.595 258.885 183.22 258.72C181.845 258.5 180.525 259.435 180.36 260.81C180.14 262.185 181.075 263.505 182.45 263.67C183.495 263.835 184.485 263.34 184.98 262.515C189.16 263.725 198.565 265.98 209.4 265.98C216.88 265.98 224.965 264.88 232.5 261.635C222.6 270.27 211.38 277.42 199.17 282.755C183.88 287.705 168.15 285.45 155.225 281.325C151.98 276.76 145.6 272.58 136.36 268.895C124.535 264.22 117.11 260.095 117 260.04L115.9 259.435L116.45 260.59C125.635 279.785 140.98 282.645 149.285 282.645C152.75 282.645 155.005 282.15 155.115 282.15C162.87 284.625 171.615 286.44 180.635 286.44C184.87 286.44 189.16 286.055 193.45 285.12C183.935 288.805 173.925 291.39 163.475 292.71V292.655C163.31 292.71 163.145 292.71 162.98 292.765C161.77 292.93 160.505 293.04 159.24 293.15V293.095C136.14 291.335 119.42 281.655 113.865 278.025C113.975 277.805 114.03 277.585 114.085 277.365C114.305 275.99 113.37 274.67 111.995 274.505C110.62 274.285 109.3 275.22 109.135 276.595C108.915 277.97 109.85 279.29 111.225 279.455C112.05 279.565 112.875 279.29 113.425 278.685C118.705 282.15 133.94 290.95 155.06 293.48C152.97 293.59 150.935 293.7 148.845 293.755V293.645C147.36 293.645 145.875 293.7 144.39 293.755C129.54 293.535 115.295 290.785 102.04 286C94.34 281.545 88.62 275.495 84.33 269.28C83.89 264.88 82.405 254.76 78.115 245.52C72.505 233.53 71.35 225.995 71.35 225.885L71.075 224.07L70.58 225.83C61.065 258.115 83.725 271.755 83.945 271.865L84.605 272.25L84.55 271.48C84.55 271.48 84.55 271.26 84.495 270.82C88.07 275.77 92.635 280.555 98.355 284.515C85.045 279.235 72.78 271.81 62 262.735C46.545 248.27 44.125 226.6 43.795 218.35C44.73 218.075 45.445 217.305 45.61 216.315C45.83 214.94 44.895 213.62 43.52 213.455C42.145 213.235 40.825 214.17 40.66 215.545C40.44 216.92 41.375 218.24 42.75 218.405C42.805 218.405 42.915 218.405 42.97 218.405C43.3 225.61 45.17 242.935 55.73 256.905C55.675 256.85 55.565 256.85 55.51 256.795C30.815 232.925 15.415 199.485 15.415 162.525C15.415 138.27 22.07 115.5 33.565 95.975C34.555 95.095 40.385 90.035 50.065 87.45C55.51 85.965 60.845 85.635 65.96 86.02C72.45 94.71 82.845 101.75 96.155 106.37C108.695 110.715 113.48 112.805 113.535 112.805L114.525 113.245L114.085 112.31C96.265 73.26 66.345 85.195 66.015 85.305H65.96C49.955 84.15 39.01 90.86 34.775 94.05C37.635 89.43 40.77 84.975 44.18 80.74C61.065 68.09 85.375 69.74 93.02 70.62C93.02 70.675 93.02 70.73 93.02 70.84C93.02 72.215 94.175 73.37 95.55 73.37C96.925 73.37 98.08 72.215 98.08 70.84C98.08 69.465 96.925 68.31 95.55 68.31C94.505 68.31 93.625 68.97 93.24 69.85C85.87 68.97 63.045 67.375 46.05 78.485C54.63 68.255 64.75 59.345 76.025 52.14C90.38 44.825 106.275 44.605 119.695 46.695C123.655 50.71 130.53 53.845 140.265 55.99C152.695 58.795 160.67 61.655 160.725 61.71L161.935 62.15L161.22 61.105C144.115 36.245 119.915 45.76 119.64 45.87C107.87 44.055 94.23 44.055 81.36 48.95C91.425 43.12 102.37 38.665 113.92 35.695C136.965 33.88 154.95 40.755 161 43.505C160.945 43.725 160.89 43.945 160.89 44.22C160.89 45.595 162.045 46.75 163.42 46.75C164.795 46.75 165.95 45.595 165.95 44.22C165.95 42.845 164.795 41.69 163.42 41.69C162.54 41.69 161.825 42.13 161.33 42.79C155.61 40.205 139.44 33.99 118.43 34.65C127.505 32.67 136.91 31.625 146.535 31.625C155.72 31.625 164.63 32.56 173.32 34.375C180.635 37.18 186.52 41.415 191.195 46.035C191.91 49.06 194.99 60.39 201.425 69.96C208.85 80.905 211.16 88.22 211.215 88.275L211.765 90.035L211.985 88.22C216.33 54.835 191.8 44.935 191.525 44.825L190.81 44.55V44.605C187.07 41.085 182.67 37.84 177.445 35.31C191.47 38.72 204.615 44.385 216.44 51.865C233.435 63.635 238.33 83.435 239.65 91.245C238.715 91.63 238.055 92.51 238.055 93.61C238.055 94.985 239.21 96.14 240.585 96.14C241.96 96.14 243.115 94.985 243.115 93.61C243.115 92.235 241.96 91.08 240.585 91.08C240.53 91.08 240.53 91.08 240.475 91.08C239.32 84.205 235.47 68.42 223.37 56.54C256.205 80.41 277.6 119.075 277.6 162.69C277.71 193.435 266.985 221.815 249.11 244.2ZM213.305 250.8C211.105 251.185 204.615 251.9 197.19 249.205C182.505 243.925 175.465 229.515 172.11 217.965C173.925 219.065 178.6 221.815 187.455 226.545C199.225 232.815 208.025 240.9 213.085 249.865C205.11 247.94 196.31 243.815 187.07 235.95L186.52 236.555C196.035 244.695 205.165 248.93 213.305 250.8ZM153.52 281.49C148.075 282.205 128.825 282.975 117.77 261.25C120.3 262.57 126.845 265.87 136.085 269.555C144.555 272.91 150.55 276.705 153.85 280.775C137.9 275.44 126.57 267.41 126.35 267.245L125.855 267.905C126.185 268.07 137.515 276.1 153.52 281.49ZM83.67 269.555C83.725 270.05 83.78 270.435 83.78 270.765C80.205 268.29 63.705 255.09 70.965 227.7C71.625 230.56 73.385 237.05 77.51 245.85C81.305 253.99 82.845 262.845 83.45 267.74C74.43 253.825 72.505 239.36 72.505 239.14L71.68 239.25C71.735 239.47 73.77 255.035 83.67 269.555ZM68.105 85.525C74.54 83.71 97.915 79.695 112.985 111.76C111.005 110.99 105.945 108.955 96.485 105.71C83.67 101.255 73.55 94.545 67.115 86.24C78.17 87.34 88.07 91.905 95.33 96.36L95.77 95.645C85.54 89.32 76.19 86.405 68.105 85.525ZM121.455 46.09C126.68 44.55 145.6 40.755 159.9 60.5C157.205 59.62 150.22 57.365 140.485 55.165C131.575 53.185 125.085 50.38 121.18 46.86C137.79 49.665 150.22 55.825 150.44 55.935L150.825 55.22C150.55 55.11 138.12 48.95 121.455 46.09ZM192.405 45.98C197.025 48.29 214.24 58.905 211.435 86.35C210.335 83.6 207.585 77.495 202.14 69.41C196.475 60.995 193.45 51.26 192.35 47.08C204.395 59.675 208.025 74.965 208.08 75.185L208.85 75.02C208.85 74.8 205 58.85 192.405 45.98ZM117.22 188.485C115.185 188.375 113.7 188.1 112.82 187.77C111.94 187.385 111.28 186.725 111.005 185.68C110.675 184.69 110.51 183.04 110.51 180.73V136.18C110.51 133.925 110.675 132.275 111.005 131.23C111.335 130.24 111.94 129.525 112.82 129.14C113.7 128.755 115.185 128.535 117.22 128.425V126.61C114.305 126.775 109.74 126.885 103.58 126.885C97.53 126.885 92.855 126.775 89.5 126.61V128.425C91.48 128.535 92.91 128.81 93.845 129.14C94.78 129.525 95.385 130.185 95.715 131.23C96.045 132.275 96.21 133.87 96.21 136.18V157.41H72.395V136.18C72.395 133.925 72.56 132.275 72.89 131.23C73.22 130.24 73.825 129.525 74.705 129.14C75.585 128.755 77.07 128.535 79.105 128.425V126.61C75.86 126.775 71.35 126.885 65.52 126.885C59.085 126.885 54.355 126.775 51.33 126.61V128.425C53.31 128.535 54.74 128.81 55.675 129.14C56.61 129.525 57.215 130.185 57.545 131.23C57.875 132.275 58.04 133.87 58.04 136.18V180.73C58.04 182.985 57.875 184.635 57.545 185.68C57.215 186.725 56.61 187.385 55.675 187.77C54.74 188.155 53.31 188.375 51.33 188.485V190.3C54.41 190.135 59.14 190.025 65.52 190.025C71.35 190.025 75.86 190.135 79.105 190.3V188.485C77.07 188.375 75.585 188.1 74.705 187.77C73.825 187.385 73.165 186.725 72.89 185.68C72.56 184.69 72.395 183.04 72.395 180.73V159.17H96.21V180.73C96.21 182.985 96.045 184.635 95.715 185.68C95.385 186.725 94.78 187.385 93.845 187.77C92.91 188.155 91.48 188.375 89.5 188.485V190.3C92.855 190.135 97.53 190.025 103.58 190.025C109.74 190.025 114.305 190.135 117.22 190.3V188.485ZM114.47 197.78C113.04 197.78 111.61 198.99 111.61 202.4C111.61 205.81 113.04 207.02 114.47 207.02C115.9 207.02 117.33 205.81 117.33 202.4C117.33 198.99 115.9 197.78 114.47 197.78ZM114.47 206.415C113.59 206.415 112.82 205.645 112.82 202.455C112.82 199.21 113.59 198.44 114.47 198.44C115.295 198.44 116.065 199.265 116.065 202.455C116.12 205.59 115.295 206.415 114.47 206.415ZM209.84 126.94C196.805 126.94 187.51 126.83 182.065 126.665C182.505 132.33 182.67 137.445 182.67 141.955C182.67 144.76 182.56 147.07 182.395 148.775H184.485C185.475 143.77 186.74 139.755 188.17 136.895C189.6 133.98 191.305 131.89 193.34 130.625C195.32 129.36 197.795 128.755 200.655 128.755H202.635V180.07C202.635 182.6 202.36 184.415 201.865 185.57C201.37 186.725 200.435 187.495 199.17 187.88C197.905 188.265 195.815 188.485 193.01 188.54V190.355C200.215 190.19 205.66 190.08 209.455 190.08C213.305 190.08 218.97 190.19 226.505 190.355V188.54C223.7 188.485 221.665 188.265 220.345 187.88C219.08 187.495 218.145 186.725 217.65 185.57C217.155 184.415 216.88 182.6 216.88 180.07V128.755H218.97C223.26 128.755 226.67 130.24 229.145 133.265C231.62 136.235 233.6 141.46 235.03 148.83H237.12C236.955 147.07 236.845 144.815 236.845 142.01C236.845 137.5 237.065 132.44 237.45 126.72C232.115 126.885 222.875 126.94 209.84 126.94ZM161.275 204.325C163.365 202.29 163.97 201.355 163.97 200.145C163.97 198.77 163.2 197.835 161.44 197.835C160.065 197.835 158.855 198.495 158.69 199.925C158.855 200.2 159.075 200.365 159.35 200.365C159.735 200.365 159.955 200.09 160.12 199.43L160.395 198.495C160.67 198.44 160.945 198.44 161.11 198.44C162.1 198.44 162.76 199.155 162.76 200.255C162.76 201.3 162.155 202.455 160.78 203.885C160.175 204.49 159.46 205.26 158.745 205.975V206.855H164.355V205.755H159.79C160.34 205.205 160.89 204.71 161.275 204.325ZM183.275 197.835H182.505L178.435 203.445V204.105H182.175V206.8H183.275V204.105H184.705V203.28H183.275V197.835ZM182.175 203.335H179.26L182.175 199.265V203.335ZM174.64 204.325C176.73 202.29 177.335 201.355 177.335 200.145C177.335 198.77 176.565 197.835 174.805 197.835C173.43 197.835 172.22 198.495 172.055 199.925C172.22 200.2 172.44 200.365 172.715 200.365C173.1 200.365 173.32 200.09 173.485 199.43L173.76 198.495C174.035 198.44 174.31 198.44 174.475 198.44C175.465 198.44 176.125 199.155 176.125 200.255C176.125 201.3 175.52 202.455 174.145 203.885C173.54 204.49 172.825 205.26 172.11 205.975V206.855H177.72V205.755H173.155C173.705 205.205 174.255 204.71 174.64 204.325ZM168.205 197.78C166.775 197.78 165.345 198.99 165.345 202.4C165.345 205.81 166.775 207.02 168.205 207.02C169.635 207.02 171.065 205.81 171.065 202.4C171.01 198.99 169.635 197.78 168.205 197.78ZM168.205 206.415C167.325 206.415 166.555 205.645 166.555 202.455C166.555 199.21 167.325 198.44 168.205 198.44C169.03 198.44 169.8 199.265 169.8 202.455C169.8 205.59 169.03 206.415 168.205 206.415ZM161.165 165.44C161.165 163.46 160.725 161.7 159.79 160.105C158.855 158.565 157.425 157.355 155.445 156.53C159.295 155.32 161.88 154.44 163.2 153.78C164.685 153.065 165.895 152.075 166.83 150.81C167.765 149.545 168.205 148.115 168.205 146.41C168.205 144.265 167.49 142.505 166.005 141.24C164.575 139.975 162.705 139.315 160.505 139.315C159.02 139.315 157.645 139.59 156.49 140.195C155.335 140.745 154.73 141.68 154.73 142.945C154.73 143.77 155.005 144.43 155.555 144.87C156.105 145.31 156.765 145.53 157.48 145.53C158.305 145.53 158.965 145.31 159.57 144.815C160.12 144.32 160.45 143.715 160.45 143C160.45 142.56 160.34 142.065 160.065 141.625C159.79 141.13 159.46 140.8 158.965 140.58C159.13 140.25 159.68 140.085 160.56 140.085C162.21 140.085 163.64 140.58 164.85 141.625C166.06 142.67 166.665 143.88 166.665 145.365C166.665 146.355 166.335 147.235 165.675 148.06C165.015 148.885 163.86 149.655 162.155 150.425C161 150.975 159.735 151.415 158.305 151.91C156.93 152.35 155.17 152.9 153.08 153.505L149.34 154.605C146.92 155.43 145.105 156.475 143.895 157.74C142.685 159.005 142.08 160.49 142.08 162.25C142.08 164.285 142.74 165.825 144.06 166.815C145.38 167.86 146.865 168.355 148.57 168.355C150.165 168.355 151.595 167.97 152.86 167.145C154.18 166.32 154.785 165.22 154.785 163.845C154.785 163.02 154.51 162.305 154.015 161.81C153.52 161.26 152.86 161.04 151.98 161.04C151.1 161.04 150.44 161.26 149.89 161.755C149.34 162.25 149.065 162.91 149.065 163.735C149.065 164.56 149.285 165.165 149.78 165.55C150.275 165.99 150.825 166.265 151.485 166.375C151.375 166.705 150.99 166.98 150.275 167.2C149.56 167.42 148.955 167.53 148.35 167.53C147.195 167.53 146.095 167.145 145.05 166.375C144.005 165.605 143.51 164.615 143.51 163.35C143.51 162.305 143.895 161.425 144.72 160.71C145.545 159.995 146.645 159.335 148.13 158.785C149.45 158.29 151.43 157.63 154.18 156.805C156.215 157.63 157.645 158.73 158.36 160.16C159.075 161.59 159.46 163.02 159.46 164.395C159.46 166.32 158.855 168.025 157.59 169.455C156.325 170.885 154.675 172.04 152.53 172.81C150.44 173.58 148.13 173.965 145.655 173.965C143.015 173.965 140.595 173.525 138.45 172.645C136.305 171.765 134.655 170.445 133.39 168.74C132.18 167.035 131.575 165 131.575 162.635C131.575 158.29 133.83 155.375 138.395 154.055C139.22 154.385 139.88 154.66 140.485 154.88C141.09 155.1 141.64 155.21 142.19 155.21C142.63 155.21 143.015 155.1 143.29 154.935C143.565 154.77 143.675 154.495 143.675 154.22C143.675 153.835 143.51 153.56 143.125 153.34C142.74 153.12 142.245 153.01 141.585 153.01C140.65 153.01 139.55 153.12 138.34 153.34C136.58 151.69 135.645 149.71 135.645 147.345C135.645 145.365 136.195 143.88 137.35 142.78C138.45 141.68 139.935 141.13 141.75 141.13C142.795 141.13 143.675 141.295 144.39 141.625C145.105 141.955 145.545 142.34 145.71 142.78C144.885 142.835 144.225 143.165 143.73 143.715C143.18 144.265 142.96 144.925 142.96 145.695C142.96 146.52 143.235 147.125 143.785 147.62C144.335 148.115 144.94 148.335 145.71 148.335C146.48 148.335 147.14 148.06 147.745 147.565C148.35 147.07 148.625 146.41 148.625 145.53C148.625 144.925 148.46 144.32 148.13 143.66C147.8 143 147.305 142.45 146.7 141.9C145.38 140.855 143.565 140.305 141.255 140.305C139.385 140.305 137.79 140.635 136.47 141.24C135.15 141.845 134.105 142.67 133.445 143.66C132.785 144.65 132.4 145.75 132.4 146.905C132.4 148.225 132.84 149.49 133.775 150.755C134.71 151.965 135.975 152.955 137.735 153.67C136.47 154 135.095 154.55 133.665 155.375C132.18 156.2 130.915 157.41 129.76 159.005C128.605 160.6 128.055 162.525 128.055 164.835C128.055 167.475 128.825 169.73 130.365 171.71C131.905 173.69 133.995 175.23 136.58 176.275C139.165 177.32 142.025 177.87 145.05 177.87C148.295 177.87 151.155 177.265 153.52 176.11C155.94 174.955 157.81 173.415 159.075 171.49C160.505 169.675 161.165 167.64 161.165 165.44ZM144.445 204.325C146.535 202.29 147.14 201.355 147.14 200.145C147.14 198.77 146.37 197.835 144.61 197.835C143.235 197.835 142.025 198.495 141.86 199.925C142.025 200.2 142.245 200.365 142.52 200.365C142.905 200.365 143.125 200.09 143.29 199.43L143.565 198.495C143.84 198.44 144.115 198.44 144.28 198.44C145.27 198.44 145.93 199.155 145.93 200.255C145.93 201.3 145.325 202.455 143.95 203.885C143.345 204.49 142.63 205.26 141.915 205.975V206.855H147.525V205.755H142.96C143.51 205.205 144.06 204.71 144.445 204.325ZM138.01 197.78C136.58 197.78 135.15 198.99 135.15 202.4C135.15 205.81 136.58 207.02 138.01 207.02C139.44 207.02 140.87 205.81 140.87 202.4C140.815 198.99 139.44 197.78 138.01 197.78ZM138.01 206.415C137.13 206.415 136.36 205.645 136.36 202.455C136.36 199.21 137.13 198.44 138.01 198.44C138.835 198.44 139.605 199.265 139.605 202.455C139.605 205.59 138.835 206.415 138.01 206.415ZM129.54 201.3C128.99 201.3 128.605 201.74 128.605 202.29C128.605 202.84 129.045 203.225 129.54 203.225C130.09 203.225 130.475 202.785 130.475 202.29C130.53 201.74 130.09 201.3 129.54 201.3ZM121.95 202.18C123.05 201.795 123.71 200.97 123.71 199.98C123.71 198.715 122.665 197.835 121.125 197.835C119.86 197.835 118.87 198.385 118.595 199.595C118.705 199.98 118.98 200.09 119.255 200.09C119.75 200.09 119.86 199.815 120.025 199.21L120.19 198.55C120.465 198.495 120.685 198.495 120.85 198.495C121.95 198.495 122.555 199.045 122.555 200.09C122.555 201.245 121.84 201.905 120.575 201.905H120.025V202.565H120.685C122.115 202.565 122.775 203.28 122.775 204.49C122.775 205.7 122.115 206.47 120.74 206.47C120.52 206.47 120.245 206.47 119.97 206.36L119.805 205.645C119.64 204.985 119.475 204.655 119.035 204.655C118.76 204.655 118.54 204.765 118.375 205.095C118.595 206.47 119.64 207.02 120.96 207.02C122.775 207.02 124.04 205.865 124.04 204.38C124.04 203.28 123.325 202.455 121.95 202.18ZM153.08 201.3C152.53 201.3 152.145 201.74 152.145 202.29C152.145 202.84 152.585 203.225 153.08 203.225C153.63 203.225 154.015 202.785 154.015 202.29C154.015 201.74 153.575 201.3 153.08 201.3Z" fill="#340B52"/>
</svg>
