<svg width="31" height="30" viewBox="0 0 31 30" fill="none" xmlns="http://www.w3.org/2000/svg">
<path d="M23.8165 23.0149C23.2424 23.017 22.6735 22.9055 22.1428 22.6869C21.612 22.4682 21.13 22.1468 20.7244 21.7411L16.2579 17.2804C16.1 17.1296 15.8898 17.0455 15.6712 17.0455C15.4526 17.0455 15.2425 17.1296 15.0845 17.2804L10.6029 21.7533C10.1976 22.1596 9.71568 22.4817 9.18495 22.701C8.65422 22.9203 8.08521 23.0324 7.5108 23.0309H6.63637L12.2961 28.6798C13.145 29.5252 14.2952 30 15.4943 30C16.6935 30 17.8437 29.5252 18.6926 28.6798L24.3636 23.0187L23.8165 23.0149Z" fill="#78229B"/>
<path d="M7.51221 6.96365C8.08693 6.96212 8.65626 7.07419 9.18728 7.29339C9.7183 7.51258 10.2005 7.83455 10.606 8.24068L15.0899 12.7126C15.2458 12.8675 15.4569 12.9545 15.677 12.9545C15.897 12.9545 16.1081 12.8675 16.264 12.7126L20.7319 8.25762C21.1371 7.85098 21.6192 7.52861 22.1503 7.30924C22.6813 7.08986 23.2508 6.97783 23.8257 6.97965H24.3636L18.6896 1.32197C18.2694 0.902864 17.7705 0.570402 17.2215 0.343575C16.6724 0.116748 16.0839 0 15.4896 0C14.8953 0 14.3068 0.116748 13.7578 0.343575C13.2087 0.570402 12.7099 0.902864 12.2897 1.32197L6.63637 6.96365H7.51221Z" fill="#78229B"/>
<path d="M29.1648 11.7163L25.7117 8.19731C25.6338 8.22975 25.5506 8.24685 25.4665 8.24768H23.8963C23.0792 8.24977 22.296 8.58047 21.7169 9.16788L17.2173 13.7505C16.8121 14.1627 16.2629 14.3942 15.6903 14.3942C15.1178 14.3942 14.5686 14.1627 14.1634 13.7505L9.64672 9.15045C9.06776 8.56267 8.28449 8.23162 7.46727 8.22928H5.5397C5.46026 8.22746 5.38176 8.21139 5.30779 8.18182L1.83284 11.7163C0.979338 12.588 0.5 13.7691 0.5 15.0005C0.5 16.2319 0.979338 17.413 1.83284 18.2846L5.30018 21.8182C5.374 21.7881 5.4526 21.772 5.5321 21.7707H7.46727C8.28447 21.7683 9.0677 21.4372 9.64672 20.8496L14.1624 16.2476C14.9789 15.4165 16.4018 15.4165 17.2173 16.2476L21.7169 20.8321C22.296 21.4195 23.0792 21.7502 23.8963 21.7523H25.4665C25.5506 21.7529 25.6339 21.77 25.7117 21.8027L29.1648 18.2837C29.5881 17.8524 29.9239 17.3404 30.153 16.7769C30.3821 16.2134 30.5 15.6095 30.5 14.9995C30.5 14.3896 30.3821 13.7856 30.153 13.2221C29.9239 12.6586 29.5881 12.1466 29.1648 11.7154" fill="#78229B"/>
</svg>
